<svg width="20" height="20" viewBox="0 0 20 20" fill="none" xmlns="http://www.w3.org/2000/svg">
<path fill-rule="evenodd" clip-rule="evenodd" d="M0 10C0 4.485 4.485 0 10 0C15.515 0 20 4.485 20 10C20 15.515 15.515 20 10 20C4.485 20 0 15.515 0 10ZM2 10C2 14.4103 5.58973 18 10 18C14.4103 18 18 14.4103 18 10C18 5.58973 14.4103 2 10 2C5.58973 2 2 5.58973 2 10ZM10.1562 7.31319C10.9352 6.47644 11.8832 5.99994 13.1637 5.99994H13.7267V9.03694C10.6747 9.03694 10.1562 9.08119 10.1562 10.2074V13.9999H7.19324V5.99994H10.1562V7.31319Z" fill="white"/>
</svg>
